<?xml version="1.0" encoding="utf-8"?>
<!-- Generator: Adobe Illustrator 26.0.0, SVG Export Plug-In . SVG Version: 6.00 Build 0)  -->
<svg version="1.1" id="Layer_1" xmlns="http://www.w3.org/2000/svg" xmlns:xlink="http://www.w3.org/1999/xlink" x="0px" y="0px"
	 viewBox="0 0 750 508" style="enable-background:new 0 0 750 508;" xml:space="preserve">
<style type="text/css">
	.st0{fill:none;stroke:#FFFFFF;stroke-width:2;stroke-linecap:round;stroke-linejoin:round;stroke-miterlimit:10;}
</style>
<path class="st0" d="M92.5,344.5c13.4-1.8,60.7-8.1,113.6,0C242,350,322,371,368.3,391c24.9,10.7,77.7,34,128.7,34
	c53,0,99-25,125-57c36.3-44.7,42-98,29.8-145c-12.6-48.3-44.1-64.3-78.5-71.5c-11-2.3-24.9-1.1-39.6,3.3
	c-31.5,9.5-66.7,34-84.9,71.7c-20.8,43-22.7,97.8-15.3,132.2c3.8,17.9,5.7,32.2-11.5,28.6c-17.2-3.6-49.9-51.6-54.9-97.4
	c-5.5-49.4,9-90.2,45.3-122.4s78.5-37.5,99.6-32.2c21.1,5.4-23,3.6-11.5,16.1c11.5,12.5,51.7-3.6,42.1-10.7
	c-9.6-7.1-17.2-60.7,7.7-94.7c24.9-33.9-51.7,25-70.9,23.2c-19.2-1.8-46.8-10.6-72.8-12.5c-24.9-1.8-55.5,12.5-84.3,44.7
	c-20.9,23.4-42.1,17.9-42.1,14.3c0-3.6,52.3,51.2,111.1,25c44.1-19.7,46-46.5,80.4-60.7c21.4-8.9,77.1-56.1,88.1-32.2
	c4.2,9.1-20.1,55.3-34.5,73.3c-5.7,7.1-1.9,15.8,30.6,17.9c31,1.9,63,23.9,76.6,44.7"/>
</svg>
